<svg width="46" height="44" viewBox="0 0 46 44" fill="none" xmlns="http://www.w3.org/2000/svg">
<mask id="mask0_235_133" style="mask-type:alpha" maskUnits="userSpaceOnUse" x="0" y="0" width="46" height="44">
<rect y="0.246582" width="46" height="43.7534" fill="#D9D9D9"/>
</mask>
<g mask="url(#mask0_235_133)">
<path d="M16.4837 41.5588L12.842 35.7215L5.94199 34.2622L6.61283 27.5128L1.91699 22.4052L6.61283 17.2976L5.94199 10.5483L12.842 9.08897L16.4837 3.25171L23.0003 5.89672L29.517 3.25171L33.1587 9.08897L40.0587 10.5483L39.3878 17.2976L44.0837 22.4052L39.3878 27.5128L40.0587 34.2622L33.1587 35.7215L29.517 41.5588L23.0003 38.9138L16.4837 41.5588ZM18.1128 36.9072L23.0003 34.9006L27.9837 36.9072L30.667 32.5292L35.9378 31.3436L35.4587 26.2359L39.0045 22.4052L35.4587 18.4833L35.9378 13.3757L30.667 12.2812L27.8878 7.90328L23.0003 9.90984L18.017 7.90328L15.3337 12.2812L10.0628 13.3757L10.542 18.4833L6.99616 22.4052L10.542 26.2359L10.0628 31.4348L15.3337 32.5292L18.1128 36.9072ZM23.0003 31.526C23.5434 31.526 23.9986 31.3512 24.3659 31.0015C24.7333 30.6519 24.917 30.2187 24.917 29.7018C24.917 29.185 24.7333 28.7517 24.3659 28.4021C23.9986 28.0525 23.5434 27.8777 23.0003 27.8777C22.4573 27.8777 22.0021 28.0525 21.6347 28.4021C21.2673 28.7517 21.0837 29.185 21.0837 29.7018C21.0837 30.2187 21.2673 30.6519 21.6347 31.0015C22.0021 31.3512 22.4573 31.526 23.0003 31.526ZM21.0837 24.2294H24.917V13.2845H21.0837V24.2294Z" fill="#C6738A"/>
</g>
</svg>
