<svg width="24" height="24" viewBox="0 0 24 24" fill="none" xmlns="http://www.w3.org/2000/svg">
<mask id="mask0_224_1112" style="mask-type:alpha" maskUnits="userSpaceOnUse" x="0" y="0" width="24" height="24">
<rect width="24" height="24" fill="#D9D9D9"/>
</mask>
<g mask="url(#mask0_224_1112)">
<path d="M1 23.7C0.45 23.7 -0.0208333 23.5042 -0.4125 23.1125C-0.804167 22.7209 -1 22.25 -1 21.7V7.70005C-1 7.15005 -0.804167 6.67922 -0.4125 6.28755C-0.0208333 5.89588 0.45 5.70005 1 5.70005H9.925L7.925 7.70005H1V21.7H15V14.75L17 12.75V21.7C17 22.25 16.8042 22.7209 16.4125 23.1125C16.0208 23.5042 15.55 23.7 15 23.7H1ZM12.175 6.27505L13.6 7.67505L7 14.275V15.7H8.4L15.025 9.07505L16.45 10.475L9.25 17.7H5V13.45L12.175 6.27505ZM16.45 10.475L12.175 6.27505L14.675 3.77505C15.075 3.37505 15.5542 3.17505 16.1125 3.17505C16.6708 3.17505 17.1417 3.37505 17.525 3.77505L18.925 5.20005C19.3083 5.58338 19.5 6.05005 19.5 6.60005C19.5 7.15005 19.3083 7.61672 18.925 8.00005L16.45 10.475Z" fill="#4D4D4D"/>
</g>
</svg>
