<svg width="30" height="29" viewBox="0 0 30 29" fill="none" xmlns="http://www.w3.org/2000/svg">
<mask id="mask0_231_1243" style="mask-type:alpha" maskUnits="userSpaceOnUse" x="0" y="0" width="30" height="29">
<rect width="30" height="28.8511" fill="#D9D9D9"/>
</mask>
<g mask="url(#mask0_231_1243)">
<path d="M12.1487 12.9094L12.5 13.2561L12.8513 12.9094C13.5087 12.2604 14.2942 11.7546 15.214 11.3933C16.1332 11.0323 17.1023 10.8511 18.125 10.8511C19.9836 10.8511 21.5002 11.371 22.7099 12.386C23.9147 13.3969 24.5 14.6313 24.5 16.1195C24.5 16.8546 24.3528 17.5756 24.0546 18.2857C23.7603 18.9868 23.2298 19.7839 22.4381 20.6781C21.6476 21.571 20.5738 22.5892 19.2099 23.7336C17.8437 24.8799 16.1114 26.2465 14.0114 27.834C14.0112 27.8341 14.0111 27.8342 14.011 27.8343L12.5 28.971L10.989 27.8343C10.9889 27.8342 10.9888 27.8341 10.9886 27.834C8.88858 26.2465 7.15633 24.8799 5.79013 23.7336C4.42621 22.5892 3.35239 21.571 2.56186 20.6781C1.77021 19.7839 1.23973 18.9868 0.945391 18.2857C0.647223 17.5756 0.5 16.8546 0.5 16.1195C0.5 14.6313 1.08531 13.3969 2.29013 12.386C3.49983 11.371 5.01641 10.8511 6.875 10.8511C7.89768 10.8511 8.86677 11.0323 9.78597 11.3933C10.7058 11.7546 11.4913 12.2604 12.1487 12.9094Z" fill="#FA0C0C" stroke="black"/>
</g>
</svg>
