<svg width="31" height="29" viewBox="0 0 31 29" fill="none" xmlns="http://www.w3.org/2000/svg">
<mask id="mask0_231_1310" style="mask-type:alpha" maskUnits="userSpaceOnUse" x="0" y="0" width="31" height="29">
<rect x="0.572754" width="29.6183" height="28.8511" fill="#D9D9D9"/>
</mask>
<g mask="url(#mask0_231_1310)">
<path d="M12.5602 12.7284L12.9137 13.0819L13.2672 12.7284C13.916 12.0798 14.6907 11.5745 15.5976 11.2138C16.5038 10.8533 17.4591 10.6724 18.4672 10.6724C20.2992 10.6724 21.7941 11.1913 22.9872 12.2052C24.1757 13.2153 24.7547 14.4501 24.7547 15.9408C24.7547 16.6768 24.6091 17.3985 24.3146 18.1091C24.0238 18.8106 23.5 19.6078 22.7186 20.5018C21.9382 21.3945 20.8782 22.4126 19.5317 23.5569C18.183 24.7032 16.4728 26.0697 14.3995 27.6572C14.3994 27.6573 14.3993 27.6574 14.3992 27.6575L12.9137 28.7893L11.4283 27.6575C11.4281 27.6574 11.428 27.6573 11.4279 27.6572C9.3546 26.0697 7.64446 24.7032 6.29572 23.5569C4.94928 22.4126 3.88925 21.3945 3.10888 20.5018C2.32746 19.6078 1.80362 18.8106 1.51286 18.1091C1.2183 17.3985 1.07275 16.6768 1.07275 15.9408C1.07275 14.4501 1.65175 13.2153 2.84025 12.2052C4.03332 11.1913 5.52824 10.6724 7.36029 10.6724C8.36836 10.6724 9.32362 10.8533 10.2299 11.2138C11.1367 11.5745 11.9115 12.0798 12.5602 12.7284Z" fill="white" stroke="black"/>
</g>
</svg>
