<svg width="31" height="27" viewBox="0 0 31 27" fill="none" xmlns="http://www.w3.org/2000/svg">
<g clip-path="url(#clip0_224_735)">
<path d="M15.5 1.62012C11.3852 1.62012 8.05997 4.51629 8.05997 8.10012V10.8001H5.57997C4.56036 10.8001 3.71997 11.5321 3.71997 12.4201V25.3801C3.71997 26.2682 4.56036 27.0001 5.57997 27.0001H25.42C26.4396 27.0001 27.28 26.2682 27.28 25.3801V12.4201C27.28 11.5321 26.4396 10.8001 25.42 10.8001H22.94V8.10012C22.94 4.51629 19.6147 1.62012 15.5 1.62012ZM15.5 2.70012C18.9511 2.70012 21.7 5.09426 21.7 8.10012V10.8001H9.29997V8.10012C9.29997 5.09426 12.0488 2.70012 15.5 2.70012ZM5.57997 11.8801H25.42C25.7639 11.8801 26.04 12.1206 26.04 12.4201V25.3801C26.04 25.6797 25.7639 25.9201 25.42 25.9201H5.57997C5.23606 25.9201 4.95997 25.6797 4.95997 25.3801V12.4201C4.95997 12.1206 5.23606 11.8801 5.57997 11.8801ZM15.5 16.2001C14.4465 16.2001 13.64 16.9025 13.64 17.8201C13.64 18.3053 13.887 18.7314 14.26 19.0014V20.5201C14.26 21.115 14.817 21.6001 15.5 21.6001C16.1829 21.6001 16.74 21.115 16.74 20.5201V19.0014C17.1129 18.7314 17.36 18.3053 17.36 17.8201C17.36 16.9025 16.5535 16.2001 15.5 16.2001Z" fill="#1E1E1E" fill-opacity="0.62"/>
</g>
<defs>
<clipPath id="clip0_224_735">
<rect width="31" height="27" fill="white"/>
</clipPath>
</defs>
</svg>
