<svg width="40" height="40" viewBox="0 0 40 40" fill="none" xmlns="http://www.w3.org/2000/svg">
<path d="M19.9688 0C8.93763 0 0 8.95161 0 20C0 31.0484 8.93763 40 19.9688 40C30.9999 40 39.9375 31.0484 39.9375 20C39.9375 8.95161 30.9999 0 19.9688 0ZM19.9688 36.129C11.0714 36.129 3.86492 28.9113 3.86492 20C3.86492 11.0887 11.0714 3.87097 19.9688 3.87097C28.8661 3.87097 36.0726 11.0887 36.0726 20C36.0726 28.9113 28.8661 36.129 19.9688 36.129ZM28.1656 14.9839L23.1573 20L28.1656 25.0161C28.544 25.3952 28.544 26.0081 28.1656 26.3871L26.3459 28.2097C25.9674 28.5887 25.3555 28.5887 24.977 28.2097L19.9688 23.1935L14.9605 28.2097C14.582 28.5887 13.9701 28.5887 13.5916 28.2097L11.7719 26.3871C11.3935 26.0081 11.3935 25.3952 11.7719 25.0161L16.7802 20L11.7719 14.9839C11.3935 14.6048 11.3935 13.9919 11.7719 13.6129L13.5916 11.7903C13.9701 11.4113 14.582 11.4113 14.9605 11.7903L19.9688 16.8064L24.977 11.7903C25.3555 11.4113 25.9674 11.4113 26.3459 11.7903L28.1656 13.6129C28.544 13.9919 28.544 14.6048 28.1656 14.9839Z" fill="white"/>
</svg>
